<?xml version="1.0" encoding="UTF-8"?>
<svg xmlns="http://www.w3.org/2000/svg" xmlns:xlink="http://www.w3.org/1999/xlink" viewBox="0 0 50 50" width="50px" height="50px">
<g id="surface89151252">
<path style="fill-rule:nonzero;fill:rgb(0%,0%,0%);fill-opacity:1;stroke-width:1;stroke-linecap:butt;stroke-linejoin:round;stroke:rgb(80.000001%,80.000001%,80.000001%);stroke-opacity:1;stroke-miterlimit:10;" d="M 127.285838 51.595132 L 127.285838 68.804325 L 141.034266 68.804325 C 146.698564 68.804325 151.362485 73.454727 151.362485 79.119025 L 151.362485 161.677185 C 151.362485 167.341483 146.698564 172.005404 141.034266 172.005404 L 30.965731 172.005404 C 25.301433 172.005404 20.637512 167.341483 20.637512 161.677185 L 20.637512 79.119025 C 20.637512 73.454727 25.301433 68.804325 30.965731 68.804325 L 44.714159 68.804325 L 44.714159 51.595132 C 44.714159 28.775716 63.167064 10.322812 85.999999 10.322812 C 108.832933 10.322812 127.285838 28.775716 127.285838 51.595132 Z M 51.595132 51.595132 L 51.595132 68.804325 L 120.404865 68.804325 L 120.404865 51.595132 C 120.404865 32.452779 105.142352 17.203785 85.999999 17.203785 C 66.857645 17.203785 51.595132 32.452779 51.595132 51.595132 Z M 27.518485 79.119025 L 27.518485 161.677185 C 27.518485 163.583309 29.046089 165.124431 30.965731 165.124431 L 141.034266 165.124431 C 142.953908 165.124431 144.481512 163.583309 144.481512 161.677185 L 144.481512 79.119025 C 144.481512 77.212901 142.953908 75.685298 141.034266 75.685298 L 124.379336 75.685298 C 124.014334 75.739372 123.635813 75.739372 123.257292 75.685298 L 48.70215 75.685298 C 48.337147 75.739372 47.958626 75.739372 47.580105 75.685298 L 30.965731 75.685298 C 29.046089 75.685298 27.518485 77.212901 27.518485 79.119025 Z M 96.314699 113.523891 C 96.314699 116.619653 94.949319 119.363932 92.880972 121.080795 L 92.880972 130.719565 C 92.880972 134.504776 89.78521 137.600538 85.999999 137.600538 C 82.214787 137.600538 79.119025 134.504776 79.119025 130.719565 L 79.119025 121.080795 C 77.050678 119.363932 75.685298 116.619653 75.685298 113.523891 C 75.685298 107.670333 80.14644 103.195672 85.999999 103.195672 C 91.853557 103.195672 96.314699 107.670333 96.314699 113.523891 Z M 96.314699 113.523891 " transform="matrix(0.288953,0,0,0.288953,0.15,0.15)"/>
<path style=" stroke:none;fill-rule:nonzero;fill:rgb(0%,0%,0%);fill-opacity:1;" d="M 25 3.132812 C 18.402344 3.132812 13.070312 8.464844 13.070312 15.058594 L 13.070312 20.03125 L 9.097656 20.03125 C 7.460938 20.03125 6.113281 21.375 6.113281 23.011719 L 6.113281 46.867188 C 6.113281 48.503906 7.460938 49.851562 9.097656 49.851562 L 40.902344 49.851562 C 42.539062 49.851562 43.886719 48.503906 43.886719 46.867188 L 43.886719 23.011719 C 43.886719 21.375 42.539062 20.03125 40.902344 20.03125 L 36.929688 20.03125 L 36.929688 15.058594 C 36.929688 8.464844 31.597656 3.132812 25 3.132812 Z M 25 5.121094 C 30.53125 5.121094 34.941406 9.527344 34.941406 15.058594 L 34.941406 20.03125 L 15.058594 20.03125 L 15.058594 15.058594 C 15.058594 9.527344 19.46875 5.121094 25 5.121094 Z M 9.097656 22.019531 L 13.898438 22.019531 C 14.007812 22.035156 14.117188 22.035156 14.222656 22.019531 L 35.765625 22.019531 C 35.875 22.035156 35.984375 22.035156 36.089844 22.019531 L 40.902344 22.019531 C 41.457031 22.019531 41.898438 22.460938 41.898438 23.011719 L 41.898438 46.867188 C 41.898438 47.417969 41.457031 47.863281 40.902344 47.863281 L 9.097656 47.863281 C 8.542969 47.863281 8.101562 47.417969 8.101562 46.867188 L 8.101562 23.011719 C 8.101562 22.460938 8.542969 22.019531 9.097656 22.019531 Z M 25 29.96875 C 23.308594 29.96875 22.019531 31.261719 22.019531 32.953125 C 22.019531 33.847656 22.414062 34.640625 23.011719 35.136719 L 23.011719 37.921875 C 23.011719 39.015625 23.90625 39.910156 25 39.910156 C 26.09375 39.910156 26.988281 39.015625 26.988281 37.921875 L 26.988281 35.136719 C 27.585938 34.640625 27.980469 33.847656 27.980469 32.953125 C 27.980469 31.261719 26.691406 29.96875 25 29.96875 Z M 25 29.96875 "/>
</g>
</svg>
